<?xml version="1.0" encoding="UTF-8" standalone="no"?>
<!DOCTYPE svg PUBLIC "-//W3C//DTD SVG 1.1//EN"
 "http://www.w3.org/Graphics/SVG/1.1/DTD/svg11.dtd">
<!-- Generated by graphviz version 2.47.3 (20210619.1520)
 -->
<!-- Title: dependencies Pages: 1 -->
<svg width="366pt" height="174pt"
 viewBox="0.00 0.00 366.00 173.80" xmlns="http://www.w3.org/2000/svg" xmlns:xlink="http://www.w3.org/1999/xlink">
<g id="graph0" class="graph" transform="scale(1 1) rotate(0) translate(4 169.8)">
<title>dependencies</title>
<polygon fill="white" stroke="transparent" points="-4,4 -4,-169.8 362,-169.8 362,4 -4,4"/>
<text text-anchor="middle" x="179" y="-8.2" font-family="sans-serif" font-size="14.00">dependencies</text>
<g id="clust1" class="cluster">
<title>cluster_OverviewPageModule</title>
<polygon fill="none" stroke="black" stroke-dasharray="1,5" points="8,-32.8 8,-157.8 350,-157.8 350,-32.8 8,-32.8"/>
</g>
<g id="clust2" class="cluster">
<title>cluster_OverviewPageModule_declarations</title>
<polygon fill="none" stroke="black" points="228,-40.8 228,-92.8 342,-92.8 342,-40.8 228,-40.8"/>
</g>
<g id="clust4" class="cluster">
<title>cluster_OverviewPageModule_imports</title>
<polygon fill="none" stroke="black" points="16,-40.8 16,-92.8 220,-92.8 220,-40.8 16,-40.8"/>
</g>
<!-- OverviewPage -->
<g id="node1" class="node">
<title>OverviewPage</title>
<polygon fill="#ffffb3" stroke="black" points="334.41,-84.8 235.59,-84.8 235.59,-48.8 334.41,-48.8 334.41,-84.8"/>
<text text-anchor="middle" x="285" y="-62.6" font-family="Times,serif" font-size="14.00">OverviewPage</text>
</g>
<!-- OverviewPageModule -->
<g id="node2" class="node">
<title>OverviewPageModule</title>
<polygon fill="#8dd3c7" stroke="black" points="264.96,-149.8 261.96,-153.8 240.96,-153.8 237.96,-149.8 123.04,-149.8 123.04,-113.8 264.96,-113.8 264.96,-149.8"/>
<text text-anchor="middle" x="194" y="-127.6" font-family="Times,serif" font-size="14.00">OverviewPageModule</text>
</g>
<!-- OverviewPage&#45;&gt;OverviewPageModule -->
<g id="edge1" class="edge">
<title>OverviewPage&#45;&gt;OverviewPageModule</title>
<path fill="none" stroke="black" d="M250.39,-84.91C250.39,-84.91 250.39,-103.79 250.39,-103.79"/>
<polygon fill="black" stroke="black" points="246.89,-103.79 250.39,-113.79 253.89,-103.79 246.89,-103.79"/>
</g>
<!-- OverviewPageRoutingModule -->
<g id="node3" class="node">
<title>OverviewPageRoutingModule</title>
<polygon fill="#8dd3c7" stroke="black" points="211.57,-84.8 208.57,-88.8 187.57,-88.8 184.57,-84.8 24.43,-84.8 24.43,-48.8 211.57,-48.8 211.57,-84.8"/>
<text text-anchor="middle" x="118" y="-62.6" font-family="Times,serif" font-size="14.00">OverviewPageRoutingModule</text>
</g>
<!-- OverviewPageRoutingModule&#45;&gt;OverviewPageModule -->
<g id="edge2" class="edge">
<title>OverviewPageRoutingModule&#45;&gt;OverviewPageModule</title>
<path fill="none" stroke="black" d="M167.28,-84.91C167.28,-84.91 167.28,-103.79 167.28,-103.79"/>
<polygon fill="black" stroke="black" points="163.78,-103.79 167.28,-113.79 170.78,-103.79 163.78,-103.79"/>
</g>
</g>
</svg>
