<?xml version="1.0" encoding="UTF-8" standalone="no"?>
<!DOCTYPE svg PUBLIC "-//W3C//DTD SVG 1.1//EN"
 "http://www.w3.org/Graphics/SVG/1.1/DTD/svg11.dtd">
<!-- Generated by graphviz version 2.47.3 (20210619.1520)
 -->
<!-- Title: dependencies Pages: 1 -->
<svg width="388pt" height="174pt"
 viewBox="0.00 0.00 388.00 173.80" xmlns="http://www.w3.org/2000/svg" xmlns:xlink="http://www.w3.org/1999/xlink">
<g id="graph0" class="graph" transform="scale(1 1) rotate(0) translate(4 169.8)">
<title>dependencies</title>
<polygon fill="white" stroke="transparent" points="-4,4 -4,-169.8 384,-169.8 384,4 -4,4"/>
<text text-anchor="middle" x="190" y="-8.2" font-family="sans-serif" font-size="14.00">dependencies</text>
<g id="clust1" class="cluster">
<title>cluster_InputCreatePageModule</title>
<polygon fill="none" stroke="black" stroke-dasharray="1,5" points="8,-32.8 8,-157.8 372,-157.8 372,-32.8 8,-32.8"/>
</g>
<g id="clust4" class="cluster">
<title>cluster_InputCreatePageModule_imports</title>
<polygon fill="none" stroke="black" points="150,-40.8 150,-92.8 364,-92.8 364,-40.8 150,-40.8"/>
</g>
<g id="clust2" class="cluster">
<title>cluster_InputCreatePageModule_declarations</title>
<polygon fill="none" stroke="black" points="16,-40.8 16,-92.8 142,-92.8 142,-40.8 16,-40.8"/>
</g>
<!-- InputCreatePage -->
<g id="node1" class="node">
<title>InputCreatePage</title>
<polygon fill="#ffffb3" stroke="black" points="133.79,-84.8 24.21,-84.8 24.21,-48.8 133.79,-48.8 133.79,-84.8"/>
<text text-anchor="middle" x="79" y="-62.6" font-family="Times,serif" font-size="14.00">InputCreatePage</text>
</g>
<!-- InputCreatePageModule -->
<g id="node2" class="node">
<title>InputCreatePageModule</title>
<polygon fill="#8dd3c7" stroke="black" points="250.34,-149.8 247.34,-153.8 226.34,-153.8 223.34,-149.8 97.66,-149.8 97.66,-113.8 250.34,-113.8 250.34,-149.8"/>
<text text-anchor="middle" x="174" y="-127.6" font-family="Times,serif" font-size="14.00">InputCreatePageModule</text>
</g>
<!-- InputCreatePage&#45;&gt;InputCreatePageModule -->
<g id="edge1" class="edge">
<title>InputCreatePage&#45;&gt;InputCreatePageModule</title>
<path fill="none" stroke="black" d="M115.61,-84.91C115.61,-84.91 115.61,-103.79 115.61,-103.79"/>
<polygon fill="black" stroke="black" points="112.11,-103.79 115.61,-113.79 119.11,-103.79 112.11,-103.79"/>
</g>
<!-- InputCreatePageRoutingModule -->
<g id="node3" class="node">
<title>InputCreatePageRoutingModule</title>
<polygon fill="#8dd3c7" stroke="black" points="355.96,-84.8 352.96,-88.8 331.96,-88.8 328.96,-84.8 158.04,-84.8 158.04,-48.8 355.96,-48.8 355.96,-84.8"/>
<text text-anchor="middle" x="257" y="-62.6" font-family="Times,serif" font-size="14.00">InputCreatePageRoutingModule</text>
</g>
<!-- InputCreatePageRoutingModule&#45;&gt;InputCreatePageModule -->
<g id="edge2" class="edge">
<title>InputCreatePageRoutingModule&#45;&gt;InputCreatePageModule</title>
<path fill="none" stroke="black" d="M204.22,-84.91C204.22,-84.91 204.22,-103.79 204.22,-103.79"/>
<polygon fill="black" stroke="black" points="200.72,-103.79 204.22,-113.79 207.72,-103.79 200.72,-103.79"/>
</g>
</g>
</svg>
