<?xml version="1.0" encoding="UTF-8" standalone="no"?>
<!DOCTYPE svg PUBLIC "-//W3C//DTD SVG 1.1//EN"
 "http://www.w3.org/Graphics/SVG/1.1/DTD/svg11.dtd">
<!-- Generated by graphviz version 2.47.3 (20210619.1520)
 -->
<!-- Title: dependencies Pages: 1 -->
<svg width="368pt" height="174pt"
 viewBox="0.00 0.00 368.00 173.80" xmlns="http://www.w3.org/2000/svg" xmlns:xlink="http://www.w3.org/1999/xlink">
<g id="graph0" class="graph" transform="scale(1 1) rotate(0) translate(4 169.8)">
<title>dependencies</title>
<polygon fill="white" stroke="transparent" points="-4,4 -4,-169.8 364,-169.8 364,4 -4,4"/>
<text text-anchor="middle" x="180" y="-8.2" font-family="sans-serif" font-size="14.00">dependencies</text>
<g id="clust1" class="cluster">
<title>cluster_HowInputPageModule</title>
<polygon fill="none" stroke="black" stroke-dasharray="1,5" points="8,-32.8 8,-157.8 352,-157.8 352,-32.8 8,-32.8"/>
</g>
<g id="clust2" class="cluster">
<title>cluster_HowInputPageModule_declarations</title>
<polygon fill="none" stroke="black" points="228,-40.8 228,-92.8 344,-92.8 344,-40.8 228,-40.8"/>
</g>
<g id="clust4" class="cluster">
<title>cluster_HowInputPageModule_imports</title>
<polygon fill="none" stroke="black" points="16,-40.8 16,-92.8 220,-92.8 220,-40.8 16,-40.8"/>
</g>
<!-- HowInputPage -->
<g id="node1" class="node">
<title>HowInputPage</title>
<polygon fill="#ffffb3" stroke="black" points="335.98,-84.8 236.02,-84.8 236.02,-48.8 335.98,-48.8 335.98,-84.8"/>
<text text-anchor="middle" x="286" y="-62.6" font-family="Times,serif" font-size="14.00">HowInputPage</text>
</g>
<!-- HowInputPageModule -->
<g id="node2" class="node">
<title>HowInputPageModule</title>
<polygon fill="#8dd3c7" stroke="black" points="266.53,-149.8 263.53,-153.8 242.53,-153.8 239.53,-149.8 123.47,-149.8 123.47,-113.8 266.53,-113.8 266.53,-149.8"/>
<text text-anchor="middle" x="195" y="-127.6" font-family="Times,serif" font-size="14.00">HowInputPageModule</text>
</g>
<!-- HowInputPage&#45;&gt;HowInputPageModule -->
<g id="edge1" class="edge">
<title>HowInputPage&#45;&gt;HowInputPageModule</title>
<path fill="none" stroke="black" d="M251.39,-84.91C251.39,-84.91 251.39,-103.79 251.39,-103.79"/>
<polygon fill="black" stroke="black" points="247.89,-103.79 251.39,-113.79 254.89,-103.79 247.89,-103.79"/>
</g>
<!-- HowInputPageRoutingModule -->
<g id="node3" class="node">
<title>HowInputPageRoutingModule</title>
<polygon fill="#8dd3c7" stroke="black" points="212.14,-84.8 209.14,-88.8 188.14,-88.8 185.14,-84.8 23.86,-84.8 23.86,-48.8 212.14,-48.8 212.14,-84.8"/>
<text text-anchor="middle" x="118" y="-62.6" font-family="Times,serif" font-size="14.00">HowInputPageRoutingModule</text>
</g>
<!-- HowInputPageRoutingModule&#45;&gt;HowInputPageModule -->
<g id="edge2" class="edge">
<title>HowInputPageRoutingModule&#45;&gt;HowInputPageModule</title>
<path fill="none" stroke="black" d="M167.78,-84.91C167.78,-84.91 167.78,-103.79 167.78,-103.79"/>
<polygon fill="black" stroke="black" points="164.28,-103.79 167.78,-113.79 171.28,-103.79 164.28,-103.79"/>
</g>
</g>
</svg>
