<?xml version="1.0" encoding="UTF-8" standalone="no"?>
<!DOCTYPE svg PUBLIC "-//W3C//DTD SVG 1.1//EN"
 "http://www.w3.org/Graphics/SVG/1.1/DTD/svg11.dtd">
<!-- Generated by graphviz version 2.47.3 (20210619.1520)
 -->
<!-- Title: dependencies Pages: 1 -->
<svg width="620pt" height="174pt"
 viewBox="0.00 0.00 620.00 173.80" xmlns="http://www.w3.org/2000/svg" xmlns:xlink="http://www.w3.org/1999/xlink">
<g id="graph0" class="graph" transform="scale(1 1) rotate(0) translate(4 169.8)">
<title>dependencies</title>
<polygon fill="white" stroke="transparent" points="-4,4 -4,-169.8 616,-169.8 616,4 -4,4"/>
<text text-anchor="middle" x="306" y="-8.2" font-family="sans-serif" font-size="14.00">dependencies</text>
<g id="clust1" class="cluster">
<title>cluster_ConditionInputPageModule</title>
<polygon fill="none" stroke="black" stroke-dasharray="1,5" points="8,-32.8 8,-157.8 604,-157.8 604,-32.8 8,-32.8"/>
</g>
<g id="clust5" class="cluster">
<title>cluster_ConditionInputPageModule_imports</title>
<polygon fill="none" stroke="black" points="362,-40.8 362,-92.8 596,-92.8 596,-40.8 362,-40.8"/>
</g>
<g id="clust2" class="cluster">
<title>cluster_ConditionInputPageModule_declarations</title>
<polygon fill="none" stroke="black" points="16,-40.8 16,-92.8 354,-92.8 354,-40.8 16,-40.8"/>
</g>
<!-- ConditionButtonComponent -->
<g id="node1" class="node">
<title>ConditionButtonComponent</title>
<polygon fill="#ffffb3" stroke="black" points="345.96,-84.8 170.04,-84.8 170.04,-48.8 345.96,-48.8 345.96,-84.8"/>
<text text-anchor="middle" x="258" y="-62.6" font-family="Times,serif" font-size="14.00">ConditionButtonComponent</text>
</g>
<!-- ConditionInputPageModule -->
<g id="node3" class="node">
<title>ConditionInputPageModule</title>
<polygon fill="#8dd3c7" stroke="black" points="344.32,-149.8 341.32,-153.8 320.32,-153.8 317.32,-149.8 171.68,-149.8 171.68,-113.8 344.32,-113.8 344.32,-149.8"/>
<text text-anchor="middle" x="258" y="-127.6" font-family="Times,serif" font-size="14.00">ConditionInputPageModule</text>
</g>
<!-- ConditionButtonComponent&#45;&gt;ConditionInputPageModule -->
<g id="edge1" class="edge">
<title>ConditionButtonComponent&#45;&gt;ConditionInputPageModule</title>
<path fill="none" stroke="black" d="M258,-84.91C258,-84.91 258,-103.79 258,-103.79"/>
<polygon fill="black" stroke="black" points="254.5,-103.79 258,-113.79 261.5,-103.79 254.5,-103.79"/>
</g>
<!-- ConditionInputPage -->
<g id="node2" class="node">
<title>ConditionInputPage</title>
<polygon fill="#ffffb3" stroke="black" points="152.27,-84.8 23.73,-84.8 23.73,-48.8 152.27,-48.8 152.27,-84.8"/>
<text text-anchor="middle" x="88" y="-62.6" font-family="Times,serif" font-size="14.00">ConditionInputPage</text>
</g>
<!-- ConditionInputPage&#45;&gt;ConditionInputPageModule -->
<g id="edge2" class="edge">
<title>ConditionInputPage&#45;&gt;ConditionInputPageModule</title>
<path fill="none" stroke="black" d="M88,-84.91C88,-104.14 88,-131.8 88,-131.8 88,-131.8 161.51,-131.8 161.51,-131.8"/>
<polygon fill="black" stroke="black" points="161.51,-135.3 171.51,-131.8 161.51,-128.3 161.51,-135.3"/>
</g>
<!-- ConditionInputPageRoutingModule -->
<g id="node4" class="node">
<title>ConditionInputPageRoutingModule</title>
<polygon fill="#8dd3c7" stroke="black" points="587.94,-84.8 584.94,-88.8 563.94,-88.8 560.94,-84.8 370.06,-84.8 370.06,-48.8 587.94,-48.8 587.94,-84.8"/>
<text text-anchor="middle" x="479" y="-62.6" font-family="Times,serif" font-size="14.00">ConditionInputPageRoutingModule</text>
</g>
<!-- ConditionInputPageRoutingModule&#45;&gt;ConditionInputPageModule -->
<g id="edge3" class="edge">
<title>ConditionInputPageRoutingModule&#45;&gt;ConditionInputPageModule</title>
<path fill="none" stroke="black" d="M479,-84.91C479,-104.14 479,-131.8 479,-131.8 479,-131.8 354.39,-131.8 354.39,-131.8"/>
<polygon fill="black" stroke="black" points="354.39,-128.3 344.39,-131.8 354.39,-135.3 354.39,-128.3"/>
</g>
</g>
</svg>
