<?xml version="1.0" encoding="UTF-8" standalone="no"?>
<!DOCTYPE svg PUBLIC "-//W3C//DTD SVG 1.1//EN"
 "http://www.w3.org/Graphics/SVG/1.1/DTD/svg11.dtd">
<!-- Generated by graphviz version 2.47.3 (20210619.1520)
 -->
<!-- Title: dependencies Pages: 1 -->
<svg width="358pt" height="174pt"
 viewBox="0.00 0.00 358.00 173.80" xmlns="http://www.w3.org/2000/svg" xmlns:xlink="http://www.w3.org/1999/xlink">
<g id="graph0" class="graph" transform="scale(1 1) rotate(0) translate(4 169.8)">
<title>dependencies</title>
<polygon fill="white" stroke="transparent" points="-4,4 -4,-169.8 354,-169.8 354,4 -4,4"/>
<text text-anchor="middle" x="175" y="-8.2" font-family="sans-serif" font-size="14.00">dependencies</text>
<g id="clust1" class="cluster">
<title>cluster_InputListPageModule</title>
<polygon fill="none" stroke="black" stroke-dasharray="1,5" points="8,-32.8 8,-157.8 342,-157.8 342,-32.8 8,-32.8"/>
</g>
<g id="clust2" class="cluster">
<title>cluster_InputListPageModule_declarations</title>
<polygon fill="none" stroke="black" points="224,-40.8 224,-92.8 334,-92.8 334,-40.8 224,-40.8"/>
</g>
<g id="clust4" class="cluster">
<title>cluster_InputListPageModule_imports</title>
<polygon fill="none" stroke="black" points="16,-40.8 16,-92.8 216,-92.8 216,-40.8 16,-40.8"/>
</g>
<!-- InputListPage -->
<g id="node1" class="node">
<title>InputListPage</title>
<polygon fill="#ffffb3" stroke="black" points="326.04,-84.8 231.96,-84.8 231.96,-48.8 326.04,-48.8 326.04,-84.8"/>
<text text-anchor="middle" x="279" y="-62.6" font-family="Times,serif" font-size="14.00">InputListPage</text>
</g>
<!-- InputListPageModule -->
<g id="node2" class="node">
<title>InputListPageModule</title>
<polygon fill="#8dd3c7" stroke="black" points="259.09,-149.8 256.09,-153.8 235.09,-153.8 232.09,-149.8 120.91,-149.8 120.91,-113.8 259.09,-113.8 259.09,-149.8"/>
<text text-anchor="middle" x="190" y="-127.6" font-family="Times,serif" font-size="14.00">InputListPageModule</text>
</g>
<!-- InputListPage&#45;&gt;InputListPageModule -->
<g id="edge1" class="edge">
<title>InputListPage&#45;&gt;InputListPageModule</title>
<path fill="none" stroke="black" d="M245.39,-84.91C245.39,-84.91 245.39,-103.79 245.39,-103.79"/>
<polygon fill="black" stroke="black" points="241.89,-103.79 245.39,-113.79 248.89,-103.79 241.89,-103.79"/>
</g>
<!-- InputListPageRoutingModule -->
<g id="node3" class="node">
<title>InputListPageRoutingModule</title>
<polygon fill="#8dd3c7" stroke="black" points="207.71,-84.8 204.71,-88.8 183.71,-88.8 180.71,-84.8 24.29,-84.8 24.29,-48.8 207.71,-48.8 207.71,-84.8"/>
<text text-anchor="middle" x="116" y="-62.6" font-family="Times,serif" font-size="14.00">InputListPageRoutingModule</text>
</g>
<!-- InputListPageRoutingModule&#45;&gt;InputListPageModule -->
<g id="edge2" class="edge">
<title>InputListPageRoutingModule&#45;&gt;InputListPageModule</title>
<path fill="none" stroke="black" d="M164.28,-84.91C164.28,-84.91 164.28,-103.79 164.28,-103.79"/>
<polygon fill="black" stroke="black" points="160.78,-103.79 164.28,-113.79 167.78,-103.79 160.78,-103.79"/>
</g>
</g>
</svg>
