<?xml version="1.0" encoding="UTF-8" standalone="no"?>
<!DOCTYPE svg PUBLIC "-//W3C//DTD SVG 1.1//EN"
 "http://www.w3.org/Graphics/SVG/1.1/DTD/svg11.dtd">
<!-- Generated by graphviz version 2.47.3 (20210619.1520)
 -->
<!-- Title: dependencies Pages: 1 -->
<svg width="3410pt" height="247pt"
 viewBox="0.00 0.00 3410.00 246.80" xmlns="http://www.w3.org/2000/svg" xmlns:xlink="http://www.w3.org/1999/xlink">
<g id="graph0" class="graph" transform="scale(1 1) rotate(0) translate(4 242.8)">
<title>dependencies</title>
<polygon fill="white" stroke="transparent" points="-4,4 -4,-242.8 3406,-242.8 3406,4 -4,4"/>
<text text-anchor="middle" x="1701" y="-8.2" font-family="sans-serif" font-size="14.00">dependencies</text>
<g id="clust1" class="cluster">
<title>cluster_AppModule</title>
<polygon fill="none" stroke="black" stroke-dasharray="1,5" points="8,-32.8 8,-230.8 298,-230.8 298,-32.8 8,-32.8"/>
</g>
<g id="clust2" class="cluster">
<title>cluster_AppModule_declarations</title>
<polygon fill="none" stroke="black" points="168,-40.8 168,-92.8 290,-92.8 290,-40.8 168,-40.8"/>
</g>
<g id="clust4" class="cluster">
<title>cluster_AppModule_imports</title>
<polygon fill="none" stroke="black" points="16,-40.8 16,-92.8 160,-92.8 160,-40.8 16,-40.8"/>
</g>
<g id="clust6" class="cluster">
<title>cluster_AppModule_bootstrap</title>
<polygon fill="none" stroke="black" points="96,-170.8 96,-222.8 220,-222.8 220,-170.8 96,-170.8"/>
</g>
<g id="clust14" class="cluster">
<title>cluster_ConditionInputPageModule</title>
<polygon fill="none" stroke="black" stroke-dasharray="1,5" points="306,-32.8 306,-157.8 902,-157.8 902,-32.8 306,-32.8"/>
</g>
<g id="clust15" class="cluster">
<title>cluster_ConditionInputPageModule_declarations</title>
<polygon fill="none" stroke="black" points="556,-40.8 556,-92.8 894,-92.8 894,-40.8 556,-40.8"/>
</g>
<g id="clust18" class="cluster">
<title>cluster_ConditionInputPageModule_imports</title>
<polygon fill="none" stroke="black" points="314,-40.8 314,-92.8 548,-92.8 548,-40.8 314,-40.8"/>
</g>
<g id="clust28" class="cluster">
<title>cluster_HowInputPageModule</title>
<polygon fill="none" stroke="black" stroke-dasharray="1,5" points="910,-32.8 910,-157.8 1254,-157.8 1254,-32.8 910,-32.8"/>
</g>
<g id="clust29" class="cluster">
<title>cluster_HowInputPageModule_declarations</title>
<polygon fill="none" stroke="black" points="1130,-40.8 1130,-92.8 1246,-92.8 1246,-40.8 1130,-40.8"/>
</g>
<g id="clust31" class="cluster">
<title>cluster_HowInputPageModule_imports</title>
<polygon fill="none" stroke="black" points="918,-40.8 918,-92.8 1122,-92.8 1122,-40.8 918,-40.8"/>
</g>
<g id="clust41" class="cluster">
<title>cluster_InputCreatePageModule</title>
<polygon fill="none" stroke="black" stroke-dasharray="1,5" points="1262,-32.8 1262,-157.8 1626,-157.8 1626,-32.8 1262,-32.8"/>
</g>
<g id="clust42" class="cluster">
<title>cluster_InputCreatePageModule_declarations</title>
<polygon fill="none" stroke="black" points="1492,-40.8 1492,-92.8 1618,-92.8 1618,-40.8 1492,-40.8"/>
</g>
<g id="clust44" class="cluster">
<title>cluster_InputCreatePageModule_imports</title>
<polygon fill="none" stroke="black" points="1270,-40.8 1270,-92.8 1484,-92.8 1484,-40.8 1270,-40.8"/>
</g>
<g id="clust54" class="cluster">
<title>cluster_InputDetailPageModule</title>
<polygon fill="none" stroke="black" stroke-dasharray="1,5" points="1634,-32.8 1634,-157.8 1992,-157.8 1992,-32.8 1634,-32.8"/>
</g>
<g id="clust55" class="cluster">
<title>cluster_InputDetailPageModule_declarations</title>
<polygon fill="none" stroke="black" points="1862,-40.8 1862,-92.8 1984,-92.8 1984,-40.8 1862,-40.8"/>
</g>
<g id="clust57" class="cluster">
<title>cluster_InputDetailPageModule_imports</title>
<polygon fill="none" stroke="black" points="1642,-40.8 1642,-92.8 1854,-92.8 1854,-40.8 1642,-40.8"/>
</g>
<g id="clust67" class="cluster">
<title>cluster_InputEditPageModule</title>
<polygon fill="none" stroke="black" stroke-dasharray="1,5" points="2000,-32.8 2000,-157.8 2336,-157.8 2336,-32.8 2000,-32.8"/>
</g>
<g id="clust68" class="cluster">
<title>cluster_InputEditPageModule_declarations</title>
<polygon fill="none" stroke="black" points="2216,-40.8 2216,-92.8 2328,-92.8 2328,-40.8 2216,-40.8"/>
</g>
<g id="clust70" class="cluster">
<title>cluster_InputEditPageModule_imports</title>
<polygon fill="none" stroke="black" points="2008,-40.8 2008,-92.8 2208,-92.8 2208,-40.8 2008,-40.8"/>
</g>
<g id="clust80" class="cluster">
<title>cluster_InputListPageModule</title>
<polygon fill="none" stroke="black" stroke-dasharray="1,5" points="2344,-32.8 2344,-157.8 2678,-157.8 2678,-32.8 2344,-32.8"/>
</g>
<g id="clust81" class="cluster">
<title>cluster_InputListPageModule_declarations</title>
<polygon fill="none" stroke="black" points="2560,-40.8 2560,-92.8 2670,-92.8 2670,-40.8 2560,-40.8"/>
</g>
<g id="clust83" class="cluster">
<title>cluster_InputListPageModule_imports</title>
<polygon fill="none" stroke="black" points="2352,-40.8 2352,-92.8 2552,-92.8 2552,-40.8 2352,-40.8"/>
</g>
<g id="clust93" class="cluster">
<title>cluster_OverviewPageModule</title>
<polygon fill="none" stroke="black" stroke-dasharray="1,5" points="2686,-32.8 2686,-157.8 3028,-157.8 3028,-32.8 2686,-32.8"/>
</g>
<g id="clust94" class="cluster">
<title>cluster_OverviewPageModule_declarations</title>
<polygon fill="none" stroke="black" points="2906,-40.8 2906,-92.8 3020,-92.8 3020,-40.8 2906,-40.8"/>
</g>
<g id="clust96" class="cluster">
<title>cluster_OverviewPageModule_imports</title>
<polygon fill="none" stroke="black" points="2694,-40.8 2694,-92.8 2898,-92.8 2898,-40.8 2694,-40.8"/>
</g>
<g id="clust106" class="cluster">
<title>cluster_RoomInputPageModule</title>
<polygon fill="none" stroke="black" stroke-dasharray="1,5" points="3036,-32.8 3036,-157.8 3394,-157.8 3394,-32.8 3036,-32.8"/>
</g>
<g id="clust107" class="cluster">
<title>cluster_RoomInputPageModule_declarations</title>
<polygon fill="none" stroke="black" points="3264,-40.8 3264,-92.8 3386,-92.8 3386,-40.8 3264,-40.8"/>
</g>
<g id="clust109" class="cluster">
<title>cluster_RoomInputPageModule_imports</title>
<polygon fill="none" stroke="black" points="3044,-40.8 3044,-92.8 3256,-92.8 3256,-40.8 3044,-40.8"/>
</g>
<!-- AppComponent -->
<g id="node1" class="node">
<title>AppComponent</title>
<polygon fill="#ffffb3" stroke="black" points="281.94,-84.8 176.06,-84.8 176.06,-48.8 281.94,-48.8 281.94,-84.8"/>
<text text-anchor="middle" x="229" y="-62.6" font-family="Times,serif" font-size="14.00">AppComponent</text>
</g>
<!-- AppModule -->
<g id="node2" class="node">
<title>AppModule</title>
<polygon fill="#8dd3c7" stroke="black" points="199.66,-149.8 196.66,-153.8 175.66,-153.8 172.66,-149.8 116.34,-149.8 116.34,-113.8 199.66,-113.8 199.66,-149.8"/>
<text text-anchor="middle" x="158" y="-127.6" font-family="Times,serif" font-size="14.00">AppModule</text>
</g>
<!-- AppComponent&#45;&gt;AppModule -->
<g id="edge1" class="edge">
<title>AppComponent&#45;&gt;AppModule</title>
<path fill="none" stroke="black" d="M188.05,-84.91C188.05,-84.91 188.05,-103.79 188.05,-103.79"/>
<polygon fill="black" stroke="black" points="184.55,-103.79 188.05,-113.79 191.55,-103.79 184.55,-103.79"/>
</g>
<!-- AppComponent  -->
<g id="node4" class="node">
<title>AppComponent </title>
<polygon fill="#80b1d3" stroke="black" points="212.44,-214.8 103.56,-214.8 103.56,-178.8 212.44,-178.8 212.44,-214.8"/>
<text text-anchor="middle" x="158" y="-192.6" font-family="Times,serif" font-size="14.00">AppComponent </text>
</g>
<!-- AppModule&#45;&gt;AppComponent  -->
<g id="edge3" class="edge">
<title>AppModule&#45;&gt;AppComponent </title>
<path fill="none" stroke="black" stroke-dasharray="1,5" d="M158,-149.91C158,-149.91 158,-168.79 158,-168.79"/>
<polygon fill="black" stroke="black" points="154.5,-168.79 158,-178.79 161.5,-168.79 154.5,-168.79"/>
</g>
<!-- AppRoutingModule -->
<g id="node3" class="node">
<title>AppRoutingModule</title>
<polygon fill="#8dd3c7" stroke="black" points="152.27,-84.8 149.27,-88.8 128.27,-88.8 125.27,-84.8 23.73,-84.8 23.73,-48.8 152.27,-48.8 152.27,-84.8"/>
<text text-anchor="middle" x="88" y="-62.6" font-family="Times,serif" font-size="14.00">AppRoutingModule</text>
</g>
<!-- AppRoutingModule&#45;&gt;AppModule -->
<g id="edge2" class="edge">
<title>AppRoutingModule&#45;&gt;AppModule</title>
<path fill="none" stroke="black" d="M134.28,-84.91C134.28,-84.91 134.28,-103.79 134.28,-103.79"/>
<polygon fill="black" stroke="black" points="130.78,-103.79 134.28,-113.79 137.78,-103.79 130.78,-103.79"/>
</g>
<!-- ConditionButtonComponent -->
<g id="node5" class="node">
<title>ConditionButtonComponent</title>
<polygon fill="#ffffb3" stroke="black" points="885.96,-84.8 710.04,-84.8 710.04,-48.8 885.96,-48.8 885.96,-84.8"/>
<text text-anchor="middle" x="798" y="-62.6" font-family="Times,serif" font-size="14.00">ConditionButtonComponent</text>
</g>
<!-- ConditionInputPageModule -->
<g id="node7" class="node">
<title>ConditionInputPageModule</title>
<polygon fill="#8dd3c7" stroke="black" points="714.32,-149.8 711.32,-153.8 690.32,-153.8 687.32,-149.8 541.68,-149.8 541.68,-113.8 714.32,-113.8 714.32,-149.8"/>
<text text-anchor="middle" x="628" y="-127.6" font-family="Times,serif" font-size="14.00">ConditionInputPageModule</text>
</g>
<!-- ConditionButtonComponent&#45;&gt;ConditionInputPageModule -->
<g id="edge4" class="edge">
<title>ConditionButtonComponent&#45;&gt;ConditionInputPageModule</title>
<path fill="none" stroke="black" d="M710.25,-66.8C704.73,-66.8 701.33,-66.8 701.33,-66.8 701.33,-66.8 701.33,-103.69 701.33,-103.69"/>
<polygon fill="black" stroke="black" points="697.83,-103.69 701.33,-113.69 704.83,-103.69 697.83,-103.69"/>
</g>
<!-- ConditionInputPage -->
<g id="node6" class="node">
<title>ConditionInputPage</title>
<polygon fill="#ffffb3" stroke="black" points="692.27,-84.8 563.73,-84.8 563.73,-48.8 692.27,-48.8 692.27,-84.8"/>
<text text-anchor="middle" x="628" y="-62.6" font-family="Times,serif" font-size="14.00">ConditionInputPage</text>
</g>
<!-- ConditionInputPage&#45;&gt;ConditionInputPageModule -->
<g id="edge5" class="edge">
<title>ConditionInputPage&#45;&gt;ConditionInputPageModule</title>
<path fill="none" stroke="black" d="M628,-84.91C628,-84.91 628,-103.79 628,-103.79"/>
<polygon fill="black" stroke="black" points="624.5,-103.79 628,-113.79 631.5,-103.79 624.5,-103.79"/>
</g>
<!-- ConditionInputPageRoutingModule -->
<g id="node8" class="node">
<title>ConditionInputPageRoutingModule</title>
<polygon fill="#8dd3c7" stroke="black" points="539.94,-84.8 536.94,-88.8 515.94,-88.8 512.94,-84.8 322.06,-84.8 322.06,-48.8 539.94,-48.8 539.94,-84.8"/>
<text text-anchor="middle" x="431" y="-62.6" font-family="Times,serif" font-size="14.00">ConditionInputPageRoutingModule</text>
</g>
<!-- ConditionInputPageRoutingModule&#45;&gt;ConditionInputPageModule -->
<g id="edge6" class="edge">
<title>ConditionInputPageRoutingModule&#45;&gt;ConditionInputPageModule</title>
<path fill="none" stroke="black" d="M540.16,-66.8C547.9,-66.8 552.73,-66.8 552.73,-66.8 552.73,-66.8 552.73,-103.69 552.73,-103.69"/>
<polygon fill="black" stroke="black" points="549.23,-103.69 552.73,-113.69 556.23,-103.69 549.23,-103.69"/>
</g>
<!-- HowInputPage -->
<g id="node9" class="node">
<title>HowInputPage</title>
<polygon fill="#ffffb3" stroke="black" points="1237.98,-84.8 1138.02,-84.8 1138.02,-48.8 1237.98,-48.8 1237.98,-84.8"/>
<text text-anchor="middle" x="1188" y="-62.6" font-family="Times,serif" font-size="14.00">HowInputPage</text>
</g>
<!-- HowInputPageModule -->
<g id="node10" class="node">
<title>HowInputPageModule</title>
<polygon fill="#8dd3c7" stroke="black" points="1168.53,-149.8 1165.53,-153.8 1144.53,-153.8 1141.53,-149.8 1025.47,-149.8 1025.47,-113.8 1168.53,-113.8 1168.53,-149.8"/>
<text text-anchor="middle" x="1097" y="-127.6" font-family="Times,serif" font-size="14.00">HowInputPageModule</text>
</g>
<!-- HowInputPage&#45;&gt;HowInputPageModule -->
<g id="edge7" class="edge">
<title>HowInputPage&#45;&gt;HowInputPageModule</title>
<path fill="none" stroke="black" d="M1153.39,-84.91C1153.39,-84.91 1153.39,-103.79 1153.39,-103.79"/>
<polygon fill="black" stroke="black" points="1149.89,-103.79 1153.39,-113.79 1156.89,-103.79 1149.89,-103.79"/>
</g>
<!-- HowInputPageRoutingModule -->
<g id="node11" class="node">
<title>HowInputPageRoutingModule</title>
<polygon fill="#8dd3c7" stroke="black" points="1114.14,-84.8 1111.14,-88.8 1090.14,-88.8 1087.14,-84.8 925.86,-84.8 925.86,-48.8 1114.14,-48.8 1114.14,-84.8"/>
<text text-anchor="middle" x="1020" y="-62.6" font-family="Times,serif" font-size="14.00">HowInputPageRoutingModule</text>
</g>
<!-- HowInputPageRoutingModule&#45;&gt;HowInputPageModule -->
<g id="edge8" class="edge">
<title>HowInputPageRoutingModule&#45;&gt;HowInputPageModule</title>
<path fill="none" stroke="black" d="M1069.78,-84.91C1069.78,-84.91 1069.78,-103.79 1069.78,-103.79"/>
<polygon fill="black" stroke="black" points="1066.28,-103.79 1069.78,-113.79 1073.28,-103.79 1066.28,-103.79"/>
</g>
<!-- InputCreatePage -->
<g id="node12" class="node">
<title>InputCreatePage</title>
<polygon fill="#ffffb3" stroke="black" points="1609.79,-84.8 1500.21,-84.8 1500.21,-48.8 1609.79,-48.8 1609.79,-84.8"/>
<text text-anchor="middle" x="1555" y="-62.6" font-family="Times,serif" font-size="14.00">InputCreatePage</text>
</g>
<!-- InputCreatePageModule -->
<g id="node13" class="node">
<title>InputCreatePageModule</title>
<polygon fill="#8dd3c7" stroke="black" points="1535.34,-149.8 1532.34,-153.8 1511.34,-153.8 1508.34,-149.8 1382.66,-149.8 1382.66,-113.8 1535.34,-113.8 1535.34,-149.8"/>
<text text-anchor="middle" x="1459" y="-127.6" font-family="Times,serif" font-size="14.00">InputCreatePageModule</text>
</g>
<!-- InputCreatePage&#45;&gt;InputCreatePageModule -->
<g id="edge9" class="edge">
<title>InputCreatePage&#45;&gt;InputCreatePageModule</title>
<path fill="none" stroke="black" d="M1517.89,-84.91C1517.89,-84.91 1517.89,-103.79 1517.89,-103.79"/>
<polygon fill="black" stroke="black" points="1514.39,-103.79 1517.89,-113.79 1521.39,-103.79 1514.39,-103.79"/>
</g>
<!-- InputCreatePageRoutingModule -->
<g id="node14" class="node">
<title>InputCreatePageRoutingModule</title>
<polygon fill="#8dd3c7" stroke="black" points="1475.96,-84.8 1472.96,-88.8 1451.96,-88.8 1448.96,-84.8 1278.04,-84.8 1278.04,-48.8 1475.96,-48.8 1475.96,-84.8"/>
<text text-anchor="middle" x="1377" y="-62.6" font-family="Times,serif" font-size="14.00">InputCreatePageRoutingModule</text>
</g>
<!-- InputCreatePageRoutingModule&#45;&gt;InputCreatePageModule -->
<g id="edge10" class="edge">
<title>InputCreatePageRoutingModule&#45;&gt;InputCreatePageModule</title>
<path fill="none" stroke="black" d="M1429.28,-84.91C1429.28,-84.91 1429.28,-103.79 1429.28,-103.79"/>
<polygon fill="black" stroke="black" points="1425.78,-103.79 1429.28,-113.79 1432.78,-103.79 1425.78,-103.79"/>
</g>
<!-- InputDetailPage -->
<g id="node15" class="node">
<title>InputDetailPage</title>
<polygon fill="#ffffb3" stroke="black" points="1976.47,-84.8 1869.53,-84.8 1869.53,-48.8 1976.47,-48.8 1976.47,-84.8"/>
<text text-anchor="middle" x="1923" y="-62.6" font-family="Times,serif" font-size="14.00">InputDetailPage</text>
</g>
<!-- InputDetailPageModule -->
<g id="node16" class="node">
<title>InputDetailPageModule</title>
<polygon fill="#8dd3c7" stroke="black" points="1903.02,-149.8 1900.02,-153.8 1879.02,-153.8 1876.02,-149.8 1752.98,-149.8 1752.98,-113.8 1903.02,-113.8 1903.02,-149.8"/>
<text text-anchor="middle" x="1828" y="-127.6" font-family="Times,serif" font-size="14.00">InputDetailPageModule</text>
</g>
<!-- InputDetailPage&#45;&gt;InputDetailPageModule -->
<g id="edge11" class="edge">
<title>InputDetailPage&#45;&gt;InputDetailPageModule</title>
<path fill="none" stroke="black" d="M1886.39,-84.91C1886.39,-84.91 1886.39,-103.79 1886.39,-103.79"/>
<polygon fill="black" stroke="black" points="1882.89,-103.79 1886.39,-113.79 1889.89,-103.79 1882.89,-103.79"/>
</g>
<!-- InputDetailPageRoutingModule -->
<g id="node17" class="node">
<title>InputDetailPageRoutingModule</title>
<polygon fill="#8dd3c7" stroke="black" points="1845.64,-84.8 1842.64,-88.8 1821.64,-88.8 1818.64,-84.8 1650.36,-84.8 1650.36,-48.8 1845.64,-48.8 1845.64,-84.8"/>
<text text-anchor="middle" x="1748" y="-62.6" font-family="Times,serif" font-size="14.00">InputDetailPageRoutingModule</text>
</g>
<!-- InputDetailPageRoutingModule&#45;&gt;InputDetailPageModule -->
<g id="edge12" class="edge">
<title>InputDetailPageRoutingModule&#45;&gt;InputDetailPageModule</title>
<path fill="none" stroke="black" d="M1799.28,-84.91C1799.28,-84.91 1799.28,-103.79 1799.28,-103.79"/>
<polygon fill="black" stroke="black" points="1795.78,-103.79 1799.28,-113.79 1802.78,-103.79 1795.78,-103.79"/>
</g>
<!-- InputEditPage -->
<g id="node18" class="node">
<title>InputEditPage</title>
<polygon fill="#ffffb3" stroke="black" points="2320.1,-84.8 2223.9,-84.8 2223.9,-48.8 2320.1,-48.8 2320.1,-84.8"/>
<text text-anchor="middle" x="2272" y="-62.6" font-family="Times,serif" font-size="14.00">InputEditPage</text>
</g>
<!-- InputEditPageModule -->
<g id="node19" class="node">
<title>InputEditPageModule</title>
<polygon fill="#8dd3c7" stroke="black" points="2252.65,-149.8 2249.65,-153.8 2228.65,-153.8 2225.65,-149.8 2113.35,-149.8 2113.35,-113.8 2252.65,-113.8 2252.65,-149.8"/>
<text text-anchor="middle" x="2183" y="-127.6" font-family="Times,serif" font-size="14.00">InputEditPageModule</text>
</g>
<!-- InputEditPage&#45;&gt;InputEditPageModule -->
<g id="edge13" class="edge">
<title>InputEditPage&#45;&gt;InputEditPageModule</title>
<path fill="none" stroke="black" d="M2238.39,-84.91C2238.39,-84.91 2238.39,-103.79 2238.39,-103.79"/>
<polygon fill="black" stroke="black" points="2234.89,-103.79 2238.39,-113.79 2241.89,-103.79 2234.89,-103.79"/>
</g>
<!-- InputEditPageRoutingModule -->
<g id="node20" class="node">
<title>InputEditPageRoutingModule</title>
<polygon fill="#8dd3c7" stroke="black" points="2200.26,-84.8 2197.26,-88.8 2176.26,-88.8 2173.26,-84.8 2015.74,-84.8 2015.74,-48.8 2200.26,-48.8 2200.26,-84.8"/>
<text text-anchor="middle" x="2108" y="-62.6" font-family="Times,serif" font-size="14.00">InputEditPageRoutingModule</text>
</g>
<!-- InputEditPageRoutingModule&#45;&gt;InputEditPageModule -->
<g id="edge14" class="edge">
<title>InputEditPageRoutingModule&#45;&gt;InputEditPageModule</title>
<path fill="none" stroke="black" d="M2156.78,-84.91C2156.78,-84.91 2156.78,-103.79 2156.78,-103.79"/>
<polygon fill="black" stroke="black" points="2153.28,-103.79 2156.78,-113.79 2160.28,-103.79 2153.28,-103.79"/>
</g>
<!-- InputListPage -->
<g id="node21" class="node">
<title>InputListPage</title>
<polygon fill="#ffffb3" stroke="black" points="2662.04,-84.8 2567.96,-84.8 2567.96,-48.8 2662.04,-48.8 2662.04,-84.8"/>
<text text-anchor="middle" x="2615" y="-62.6" font-family="Times,serif" font-size="14.00">InputListPage</text>
</g>
<!-- InputListPageModule -->
<g id="node22" class="node">
<title>InputListPageModule</title>
<polygon fill="#8dd3c7" stroke="black" points="2595.09,-149.8 2592.09,-153.8 2571.09,-153.8 2568.09,-149.8 2456.91,-149.8 2456.91,-113.8 2595.09,-113.8 2595.09,-149.8"/>
<text text-anchor="middle" x="2526" y="-127.6" font-family="Times,serif" font-size="14.00">InputListPageModule</text>
</g>
<!-- InputListPage&#45;&gt;InputListPageModule -->
<g id="edge15" class="edge">
<title>InputListPage&#45;&gt;InputListPageModule</title>
<path fill="none" stroke="black" d="M2581.39,-84.91C2581.39,-84.91 2581.39,-103.79 2581.39,-103.79"/>
<polygon fill="black" stroke="black" points="2577.89,-103.79 2581.39,-113.79 2584.89,-103.79 2577.89,-103.79"/>
</g>
<!-- InputListPageRoutingModule -->
<g id="node23" class="node">
<title>InputListPageRoutingModule</title>
<polygon fill="#8dd3c7" stroke="black" points="2543.71,-84.8 2540.71,-88.8 2519.71,-88.8 2516.71,-84.8 2360.29,-84.8 2360.29,-48.8 2543.71,-48.8 2543.71,-84.8"/>
<text text-anchor="middle" x="2452" y="-62.6" font-family="Times,serif" font-size="14.00">InputListPageRoutingModule</text>
</g>
<!-- InputListPageRoutingModule&#45;&gt;InputListPageModule -->
<g id="edge16" class="edge">
<title>InputListPageRoutingModule&#45;&gt;InputListPageModule</title>
<path fill="none" stroke="black" d="M2500.28,-84.91C2500.28,-84.91 2500.28,-103.79 2500.28,-103.79"/>
<polygon fill="black" stroke="black" points="2496.78,-103.79 2500.28,-113.79 2503.78,-103.79 2496.78,-103.79"/>
</g>
<!-- OverviewPage -->
<g id="node24" class="node">
<title>OverviewPage</title>
<polygon fill="#ffffb3" stroke="black" points="3012.41,-84.8 2913.59,-84.8 2913.59,-48.8 3012.41,-48.8 3012.41,-84.8"/>
<text text-anchor="middle" x="2963" y="-62.6" font-family="Times,serif" font-size="14.00">OverviewPage</text>
</g>
<!-- OverviewPageModule -->
<g id="node25" class="node">
<title>OverviewPageModule</title>
<polygon fill="#8dd3c7" stroke="black" points="2942.96,-149.8 2939.96,-153.8 2918.96,-153.8 2915.96,-149.8 2801.04,-149.8 2801.04,-113.8 2942.96,-113.8 2942.96,-149.8"/>
<text text-anchor="middle" x="2872" y="-127.6" font-family="Times,serif" font-size="14.00">OverviewPageModule</text>
</g>
<!-- OverviewPage&#45;&gt;OverviewPageModule -->
<g id="edge17" class="edge">
<title>OverviewPage&#45;&gt;OverviewPageModule</title>
<path fill="none" stroke="black" d="M2928.39,-84.91C2928.39,-84.91 2928.39,-103.79 2928.39,-103.79"/>
<polygon fill="black" stroke="black" points="2924.89,-103.79 2928.39,-113.79 2931.89,-103.79 2924.89,-103.79"/>
</g>
<!-- OverviewPageRoutingModule -->
<g id="node26" class="node">
<title>OverviewPageRoutingModule</title>
<polygon fill="#8dd3c7" stroke="black" points="2889.57,-84.8 2886.57,-88.8 2865.57,-88.8 2862.57,-84.8 2702.43,-84.8 2702.43,-48.8 2889.57,-48.8 2889.57,-84.8"/>
<text text-anchor="middle" x="2796" y="-62.6" font-family="Times,serif" font-size="14.00">OverviewPageRoutingModule</text>
</g>
<!-- OverviewPageRoutingModule&#45;&gt;OverviewPageModule -->
<g id="edge18" class="edge">
<title>OverviewPageRoutingModule&#45;&gt;OverviewPageModule</title>
<path fill="none" stroke="black" d="M2845.28,-84.91C2845.28,-84.91 2845.28,-103.79 2845.28,-103.79"/>
<polygon fill="black" stroke="black" points="2841.78,-103.79 2845.28,-113.79 2848.78,-103.79 2841.78,-103.79"/>
</g>
<!-- RoomInputPage -->
<g id="node27" class="node">
<title>RoomInputPage</title>
<polygon fill="#ffffb3" stroke="black" points="3378.49,-84.8 3271.51,-84.8 3271.51,-48.8 3378.49,-48.8 3378.49,-84.8"/>
<text text-anchor="middle" x="3325" y="-62.6" font-family="Times,serif" font-size="14.00">RoomInputPage</text>
</g>
<!-- RoomInputPageModule -->
<g id="node28" class="node">
<title>RoomInputPageModule</title>
<polygon fill="#8dd3c7" stroke="black" points="3305.04,-149.8 3302.04,-153.8 3281.04,-153.8 3278.04,-149.8 3154.96,-149.8 3154.96,-113.8 3305.04,-113.8 3305.04,-149.8"/>
<text text-anchor="middle" x="3230" y="-127.6" font-family="Times,serif" font-size="14.00">RoomInputPageModule</text>
</g>
<!-- RoomInputPage&#45;&gt;RoomInputPageModule -->
<g id="edge19" class="edge">
<title>RoomInputPage&#45;&gt;RoomInputPageModule</title>
<path fill="none" stroke="black" d="M3288.39,-84.91C3288.39,-84.91 3288.39,-103.79 3288.39,-103.79"/>
<polygon fill="black" stroke="black" points="3284.89,-103.79 3288.39,-113.79 3291.89,-103.79 3284.89,-103.79"/>
</g>
<!-- RoomInputPageRoutingModule -->
<g id="node29" class="node">
<title>RoomInputPageRoutingModule</title>
<polygon fill="#8dd3c7" stroke="black" points="3247.66,-84.8 3244.66,-88.8 3223.66,-88.8 3220.66,-84.8 3052.34,-84.8 3052.34,-48.8 3247.66,-48.8 3247.66,-84.8"/>
<text text-anchor="middle" x="3150" y="-62.6" font-family="Times,serif" font-size="14.00">RoomInputPageRoutingModule</text>
</g>
<!-- RoomInputPageRoutingModule&#45;&gt;RoomInputPageModule -->
<g id="edge20" class="edge">
<title>RoomInputPageRoutingModule&#45;&gt;RoomInputPageModule</title>
<path fill="none" stroke="black" d="M3201.28,-84.91C3201.28,-84.91 3201.28,-103.79 3201.28,-103.79"/>
<polygon fill="black" stroke="black" points="3197.78,-103.79 3201.28,-113.79 3204.78,-103.79 3197.78,-103.79"/>
</g>
</g>
</svg>
